<svg xmlns="http://www.w3.org/2000/svg" viewBox="0 0 64 64">
  <defs>
    <linearGradient id="g" x1="0%" y1="0%" x2="100%" y2="100%">
      <stop offset="0%" stop-color="#0B1215" />
      <stop offset="100%" stop-color="#1E2A2F" />
    </linearGradient>
  </defs>
  <rect width="64" height="64" rx="14" fill="url(#g)" />
  <circle cx="32" cy="32" r="19" fill="none" stroke="#D4AF37" stroke-width="3.5" />
  <path
    d="M23 33c0-6 3.8-10.8 9-10.8 2.5 0 4.6.8 6.2 2.2l-2.1 2.5c-1.2-.9-2.5-1.4-4.1-1.4-3.2 0-5.5 2.9-5.5 7.5s2.3 7.5 5.7 7.5c1.8 0 3.1-.6 4.3-1.7l2.1 2.4c-1.7 1.8-4 2.8-6.8 2.8-5.2 0-8.8-4-8.8-11Z"
    fill="#F6FFF7"
  />
</svg>
